<?xml version="1.0" standalone="no"?>
<!DOCTYPE svg PUBLIC "-//W3C//DTD SVG 20010904//EN"
 "http://www.w3.org/TR/2001/REC-SVG-20010904/DTD/svg10.dtd">
<svg version="1.0" xmlns="http://www.w3.org/2000/svg"
 width="399.000000pt" height="400.000000pt" viewBox="0 0 399.000000 400.000000"
 preserveAspectRatio="xMidYMid meet">

<g transform="translate(0.000000,400.000000) scale(0.100000,-0.100000)"
fill="#000000" stroke="none">
<path d="M0 2000 l0 -2000 1993 2 1992 3 0 1995 0 1995 -1992 3 -1993 2 0
-2000z m553 519 c12 -7 25 -17 29 -23 4 -6 8 -100 8 -208 0 -243 -3 -238 122
-238 113 0 118 6 118 129 0 110 17 160 69 204 105 88 264 57 325 -64 22 -45
26 -66 26 -143 0 -120 6 -126 118 -126 123 0 122 -1 122 174 0 115 4 148 19
181 23 51 79 101 128 114 52 15 655 14 708 0 51 -14 109 -73 125 -126 21 -71
6 -128 -49 -183 -29 -29 -59 -49 -80 -53 -18 -4 -124 -7 -235 -7 -216 0 -248
-7 -254 -48 -8 -51 -1 -52 300 -52 l279 0 24 -25 c28 -27 30 -42 13 -80 -19
-42 -59 -47 -348 -43 -247 3 -268 4 -312 25 -153 70 -134 307 29 352 21 6 132
11 246 11 124 0 216 4 228 10 20 11 25 45 9 70 -8 13 -56 15 -317 18 -236 2
-314 -1 -333 -11 -25 -12 -25 -14 -30 -174 -5 -160 -5 -162 -35 -205 -19 -27
-48 -52 -80 -68 -44 -22 -63 -25 -155 -25 -93 0 -111 3 -155 26 -30 15 -62 42
-80 68 -28 39 -30 50 -33 139 -1 54 -5 107 -7 119 -6 27 -54 45 -81 30 -31
-17 -34 -27 -34 -123 0 -76 -4 -98 -25 -139 -13 -27 -22 -52 -19 -57 3 -5 2
-7 -3 -6 -4 2 -24 -7 -43 -19 -70 -43 -204 -56 -296 -28 -57 18 -83 37 -118
90 l-26 38 0 223 c0 211 1 225 20 244 23 23 51 25 83 9z m2932 -14 c14 -13 25
-31 25 -40 0 -20 -19 -57 -34 -67 -6 -4 -180 -8 -386 -8 -324 0 -379 -2 -398
-16 -21 -14 -22 -22 -22 -151 0 -113 3 -140 17 -155 15 -17 41 -18 392 -18
413 0 413 0 426 -59 8 -36 -10 -66 -46 -81 -18 -8 -147 -10 -405 -8 l-379 3
-45 25 c-24 14 -58 44 -75 68 -30 43 -30 45 -33 195 -4 172 3 210 51 264 64
72 65 73 500 73 l388 0 24 -25z m-2753 -756 c10 -5 19 -5 22 0 11 17 92 22
134 8 166 -57 197 -261 55 -361 -34 -24 -52 -29 -95 -29 -29 0 -73 1 -98 1
-25 0 -73 0 -107 -1 -54 -2 -67 2 -105 28 -112 80 -121 240 -16 324 58 47 153
60 210 30z m2759 -8 c27 -33 28 -188 2 -220 l-18 -21 -1170 -1 -1170 0 -17 22
c-14 17 -18 40 -18 111 0 81 2 91 25 114 l24 24 1162 -2 1161 -3 19 -24z
m-2193 -308 c2 -9 -11 -13 -47 -13 -39 0 -51 -4 -51 -15 0 -11 12 -15 50 -15
38 0 50 -4 50 -15 0 -13 -11 -15 -57 -13 -58 3 -58 3 -61 37 -2 20 2 37 10 43
19 12 101 5 106 -9z m112 2 c0 -11 11 -15 40 -15 30 0 40 4 40 16 0 8 5 12 10
9 6 -3 10 -24 10 -46 0 -21 -4 -39 -10 -39 -5 0 -10 7 -10 15 0 11 -11 15 -40
15 -29 0 -40 -4 -40 -15 0 -8 -4 -15 -10 -15 -5 0 -10 20 -10 45 0 25 5 45 10
45 6 0 10 -7 10 -15z m294 9 c18 -7 23 -84 6 -84 -5 0 -10 7 -10 15 0 11 -11
15 -40 15 -29 0 -40 -4 -40 -15 0 -8 -4 -15 -10 -15 -15 0 -12 77 3 83 18 8
73 8 91 1z m164 -22 c4 -27 22 -29 22 -3 0 25 14 34 40 26 16 -5 20 -15 20
-46 0 -21 -4 -39 -10 -39 -5 0 -10 14 -10 30 0 34 -15 40 -23 10 -3 -12 -14
-20 -27 -20 -13 0 -24 8 -27 20 -8 30 -23 24 -23 -10 0 -16 -4 -30 -10 -30
-15 0 -12 77 3 83 23 10 42 2 45 -21z m280 19 c8 -5 12 -17 10 -27 -2 -15 -13
-20 -47 -22 -36 -3 -43 -1 -38 12 4 9 2 16 -3 16 -6 0 -10 -13 -10 -30 0 -16
-4 -30 -10 -30 -15 0 -12 77 3 83 20 9 81 7 95 -2z m122 -36 c0 -25 -4 -45
-10 -45 -5 0 -10 20 -10 45 0 25 5 45 10 45 6 0 10 -20 10 -45z m198 36 c8 -5
12 -22 10 -42 l-3 -34 -55 0 -55 0 -3 34 c-4 40 9 51 58 51 19 0 41 -4 48 -9z
m156 3 c9 -3 16 -17 16 -30 0 -15 6 -24 15 -24 10 0 15 10 15 30 0 17 5 30 11
30 6 0 9 -17 7 -42 -3 -40 -5 -43 -33 -43 -25 0 -30 4 -33 28 -5 38 -32 36
-32 -3 0 -16 -4 -30 -10 -30 -15 0 -12 77 3 83 18 8 23 8 41 1z m260 0 c28
-11 17 -24 -21 -26 l-38 -1 38 -4 c28 -3 37 -9 37 -23 0 -22 -19 -30 -76 -30
-33 0 -44 4 -44 16 0 11 6 14 23 10 l22 -6 -22 11 c-25 13 -31 44 -10 52 18 8
73 8 91 1z m170 -24 c26 0 36 4 36 16 0 8 5 12 10 9 6 -3 10 -24 10 -46 0 -21
-4 -39 -10 -39 -5 0 -10 7 -10 15 0 11 -11 15 -40 15 -29 0 -40 -4 -40 -15 0
-8 -4 -15 -10 -15 -5 0 -10 21 -10 48 1 41 2 45 14 30 8 -12 27 -18 50 -18z
m366 15 c24 -28 4 -47 -45 -43 -38 3 -45 0 -45 -14 0 -10 -4 -18 -10 -18 -15
0 -12 77 3 83 27 11 85 6 97 -8z m-200 -35 c0 -22 -4 -40 -10 -40 -5 0 -10 18
-10 40 0 22 5 40 10 40 6 0 10 -18 10 -40z"/>
<path d="M595 1737 c-76 -30 -90 -50 -41 -59 18 -4 29 2 43 21 23 31 35 51 31
50 -2 0 -16 -6 -33 -12z"/>
<path d="M691 1710 c28 -37 48 -45 67 -26 13 13 11 17 -19 35 -19 12 -42 21
-52 21 -16 0 -16 -3 4 -30z"/>
<path d="M800 1727 c0 -4 -10 -6 -22 -2 -21 5 -21 5 -4 -6 10 -6 39 -12 65
-13 55 -1 93 -24 122 -69 17 -26 19 -43 15 -94 -4 -53 -3 -61 10 -56 8 3 13
12 10 19 -3 7 -1 16 3 19 10 5 8 56 -2 72 -4 6 -5 18 -1 26 3 8 -2 17 -10 20
-10 4 -13 13 -9 23 4 12 3 15 -6 10 -8 -5 -14 0 -18 14 -3 13 -11 19 -20 16
-7 -3 -16 1 -20 9 -3 10 -12 13 -24 10 -11 -4 -19 -2 -19 2 0 5 -16 9 -35 9
-19 0 -35 -4 -35 -9z"/>
<path d="M618 1706 c-17 -23 -16 -24 2 -29 17 -4 20 0 20 24 0 35 0 35 -22 5z"/>
<path d="M660 1685 c0 -32 2 -36 15 -25 8 7 15 18 15 25 0 7 -7 18 -15 25 -13
11 -15 7 -15 -25z"/>
<path d="M810 1682 c0 -4 21 -8 46 -8 28 -1 41 2 32 7 -17 11 -78 12 -78 1z"/>
<path d="M769 1668 c-19 -15 -32 -60 -23 -82 10 -25 43 -19 54 10 13 33 13 47
-3 67 -10 15 -15 16 -28 5z"/>
<path d="M939 1593 c15 -62 16 -65 19 -31 3 30 -19 98 -31 98 -2 0 4 -30 12
-67z"/>
<path d="M476 1617 c-5 -21 -6 -41 -2 -44 12 -12 17 5 14 43 l-4 39 -8 -38z"/>
<path d="M661 1604 c0 -21 3 -32 6 -24 3 8 9 17 14 20 4 3 1 14 -7 24 -13 18
-14 17 -13 -20z"/>
<path d="M570 1601 c0 -5 16 -11 35 -13 24 -3 35 0 35 9 0 8 -13 13 -35 13
-19 0 -35 -4 -35 -9z"/>
<path d="M470 1532 c0 -16 6 -36 13 -45 10 -15 12 -11 9 28 -4 49 -22 63 -22
17z"/>
<path d="M663 1525 c0 -22 2 -30 4 -17 2 12 2 30 0 40 -3 9 -5 -1 -4 -23z"/>
<path d="M751 1506 l1 -51 13 30 c19 40 19 72 0 72 -11 0 -15 -12 -14 -51z"/>
<path d="M860 1544 c0 -8 5 -12 10 -9 6 4 8 11 5 16 -9 14 -15 11 -15 -7z"/>
<path d="M630 1540 c0 -5 -10 -10 -23 -10 -29 0 -36 -6 -30 -29 3 -13 12 -16
34 -13 24 4 29 9 29 33 0 16 -2 29 -5 29 -3 0 -5 -4 -5 -10z"/>
<path d="M613 1472 l-22 -7 20 -32 c12 -18 23 -33 25 -33 2 0 3 18 2 40 -1 22
-2 40 -2 39 -1 -1 -11 -4 -23 -7z"/>
<path d="M660 1445 c0 -36 1 -38 16 -23 15 15 15 18 0 39 -16 23 -16 23 -16
-16z"/>
<path d="M840 1465 c0 -8 -7 -15 -15 -15 -8 0 -15 -5 -15 -10 0 -7 14 -8 38
-4 48 9 52 12 45 29 -7 20 -53 20 -53 0z"/>
<path d="M551 1448 c-12 -4 -28 -5 -34 -1 -7 4 -5 -2 3 -12 14 -17 98 -60 104
-53 2 1 -9 19 -23 39 -23 31 -30 35 -50 27z"/>
<path d="M692 1420 c-12 -16 -22 -31 -22 -34 0 -6 59 15 85 31 17 11 18 14 5
23 -26 17 -45 11 -68 -20z"/>
<path d="M900 1434 c-14 -7 -46 -14 -71 -14 -31 0 -51 -6 -60 -16 -12 -15 -11
-16 8 -10 12 4 24 2 28 -4 5 -8 11 -7 22 1 12 10 16 10 24 -2 8 -12 11 -11 20
4 8 13 14 15 24 7 9 -8 14 -5 18 10 3 12 11 18 19 15 9 -4 15 0 15 10 0 18
-13 18 -47 -1z"/>
<path d="M1192 1668 c-14 -14 -16 -88 -2 -88 6 0 10 9 10 20 0 16 7 20 35 20
19 0 35 5 35 10 0 6 -16 10 -35 10 -19 0 -35 5 -35 10 0 6 25 10 56 10 34 0
53 4 49 10 -9 14 -99 12 -113 -2z"/>
<path d="M1330 1631 c0 -28 5 -51 10 -51 6 0 10 20 10 44 0 25 -4 48 -10 51
-6 4 -10 -13 -10 -44z"/>
<path d="M1387 1673 c-12 -11 -8 -95 4 -88 6 4 8 13 5 21 -4 11 6 14 48 14 47
0 55 -3 61 -22 7 -20 9 -18 12 16 7 60 1 66 -65 66 -32 0 -62 -3 -65 -7z m113
-23 c0 -5 -22 -10 -50 -10 -27 0 -50 5 -50 10 0 6 23 10 50 10 28 0 50 -4 50
-10z"/>
<path d="M1622 1639 c3 -49 27 -71 56 -53 9 6 18 21 20 33 2 11 7 21 12 21 5
0 10 -10 12 -21 4 -30 33 -47 56 -33 19 12 30 94 13 94 -6 0 -11 -18 -11 -40
0 -33 -3 -40 -19 -40 -14 0 -21 8 -23 28 -2 21 -8 27 -28 27 -20 0 -26 -6 -28
-27 -2 -20 -9 -28 -23 -28 -16 0 -19 7 -19 40 0 22 -5 40 -11 40 -6 0 -9 -17
-7 -41z"/>
<path d="M1834 1666 c-3 -8 -4 -29 -2 -48 l3 -33 65 0 65 0 0 45 0 45 -63 3
c-47 2 -64 -1 -68 -12z m116 -37 c0 -30 0 -30 -52 -27 -53 3 -59 10 -49 53 1
3 24 5 51 5 49 0 50 -1 50 -31z"/>
<path d="M2012 1668 c-14 -14 -16 -88 -2 -88 6 0 10 18 10 40 l0 40 55 0 c30
0 55 -4 55 -10 0 -5 -17 -10 -39 -10 -46 0 -70 -22 -51 -45 14 -17 110 -21
110 -5 0 6 -22 10 -50 10 -27 0 -50 5 -50 10 0 6 17 10 39 10 46 0 70 22 51
45 -15 18 -110 21 -128 3z"/>
<path d="M2178 1674 c-12 -12 -9 -69 4 -82 14 -14 138 -16 138 -2 0 5 -28 10
-62 12 l-63 3 -5 38 c-3 22 -8 35 -12 31z"/>
<path d="M2352 1668 c-15 -15 -16 -45 -2 -53 6 -4 10 5 10 19 0 25 3 26 55 26
54 0 55 0 55 -30 l0 -30 -66 0 c-41 0 -63 -4 -59 -10 9 -14 119 -12 133 2 7 7
12 24 12 38 0 38 -18 50 -75 50 -28 0 -56 -5 -63 -12z"/>
<path d="M2597 1674 c-11 -11 -8 -94 3 -94 6 0 10 18 10 40 l0 40 50 0 c28 0
50 -4 50 -10 0 -5 -18 -10 -40 -10 -44 0 -61 -19 -40 -45 14 -17 100 -21 100
-5 0 6 -20 10 -45 10 -57 0 -59 18 -2 22 37 3 42 6 42 28 0 24 -3 25 -60 28
-34 2 -64 0 -68 -4z"/>
<path d="M2774 1668 c-12 -19 -14 -77 -3 -83 5 -4 9 3 9 14 0 19 6 21 55 21
48 0 55 -2 55 -20 0 -11 5 -20 11 -20 6 0 9 19 7 48 l-3 47 -62 3 c-42 2 -64
-1 -69 -10z m116 -18 c0 -5 -25 -10 -56 -10 -34 0 -53 4 -49 10 3 6 28 10 56
10 27 0 49 -4 49 -10z"/>
<path d="M2940 1642 c0 -21 5 -43 12 -50 15 -15 138 -16 138 -2 0 6 -28 10
-65 10 l-65 0 0 40 c0 22 -4 40 -10 40 -5 0 -10 -17 -10 -38z"/>
<path d="M3110 1636 c0 -31 5 -46 16 -50 26 -10 124 -7 124 4 0 6 -27 10 -60
10 l-60 0 0 40 c0 22 -4 40 -10 40 -5 0 -10 -20 -10 -44z"/>
<path d="M3282 1653 c3 -27 6 -28 66 -31 79 -4 72 -22 -9 -22 -33 0 -59 -4
-59 -10 0 -14 123 -13 138 2 15 15 16 74 2 83 -5 3 -10 -3 -10 -14 0 -19 -6
-21 -55 -21 -48 0 -55 2 -55 20 0 11 -5 20 -11 20 -6 0 -9 -12 -7 -27z"/>
<path d="M1625 1420 c-3 -5 -1 -10 4 -10 6 0 11 5 11 10 0 6 -2 10 -4 10 -3 0
-8 -4 -11 -10z"/>
<path d="M2380 1405 c0 -11 11 -15 40 -15 29 0 40 4 40 15 0 11 -11 15 -40 15
-29 0 -40 -4 -40 -15z"/>
<path d="M3338 1413 c7 -3 16 -2 19 1 4 3 -2 6 -13 5 -11 0 -14 -3 -6 -6z"/>
<path d="M3378 1413 c7 -3 16 -2 19 1 4 3 -2 6 -13 5 -11 0 -14 -3 -6 -6z"/>
</g>
</svg>
